# xmcd
#
# Track frame offsets:
#	150
#	8998
#	28510
#	45699
#	65294
#	81265
#	99415
#	113540
#	132149
#	144009
#	158324
#	176802
#	193179
#	204302
#
# Disc length: 2950 seconds
#
# Revision: 1
# Processed by: cddbd v1.5.2PL0 Copyright (c) Steve Scherf et al.
# Submitted via: audiograbber 1.83.01
#
DISCID=a90b840e
DTITLE=Hand Picked Bluegrass - Sweet Virginia
DYEAR=2009
DGENRE=Bluegrass
TTITLE0=Kisses No Longer True
TTITLE1=Five Finger Discount
TTITLE2=Sweet Virginia
TTITLE3=She Was Dear to Me
TTITLE4=Be Here With You
TTITLE5=Cold Hard Winter
TTITLE6=Billsville
TTITLE7=That's What I Call Home
TTITLE8=Take Me Down to the River
TTITLE9=Duluth
TTITLE10=Tomahawk'n
TTITLE11=We Will Survive
TTITLE12=Could You Loan Some
TTITLE13=Blues Stay Away From Me
EXTD=
EXTT0=
EXTT1=
EXTT2=
EXTT3=
EXTT4=
EXTT5=
EXTT6=
EXTT7=
EXTT8=
EXTT9=
EXTT10=
EXTT11=
EXTT12=
EXTT13=
PLAYORDER=
